<?xml version="1.0" encoding="UTF-8"?>
<svg width="16" height="16" viewBox="0 0 16 16" fill="none" xmlns="http://www.w3.org/2000/svg">
  <path d="M8 16C12.4183 16 16 12.4183 16 8C16 3.58172 12.4183 0 8 0C3.58172 0 0 3.58172 0 8C0 12.4183 3.58172 16 8 16Z" fill="#28A0F0"/>
  <path d="M11.2 4.8L8.8 3.6C8.4 3.4 7.8 3.4 7.4 3.6L5 4.8C4.6 5 4.4 5.4 4.4 5.8V10.2C4.4 10.6 4.6 11 5 11.2L7.4 12.4C7.6 12.5 7.8 12.6 8 12.6C8.2 12.6 8.4 12.5 8.6 12.4L11 11.2C11.4 11 11.6 10.6 11.6 10.2V5.8C11.6 5.4 11.4 5 11.2 4.8Z" fill="white"/>
</svg> 