<?xml version="1.0" encoding="UTF-8"?>
<svg width="16" height="16" viewBox="0 0 16 16" fill="none" xmlns="http://www.w3.org/2000/svg">
  <path d="M8 16C12.4183 16 16 12.4183 16 8C16 3.58172 12.4183 0 8 0C3.58172 0 0 3.58172 0 8C0 12.4183 3.58172 16 8 16Z" fill="#48A9A6"/>
  <path d="M11.2 5.6L8.8 4.4C8.4 4.2 7.8 4.2 7.4 4.4L5 5.6C4.6 5.8 4.4 6.2 4.4 6.6V9.4C4.4 9.8 4.6 10.2 5 10.4L7.4 11.6C7.6 11.7 7.8 11.8 8 11.8C8.2 11.8 8.4 11.7 8.6 11.6L11 10.4C11.4 10.2 11.6 9.8 11.6 9.4V6.6C11.6 6.2 11.4 5.8 11.2 5.6Z" fill="white"/>
</svg> 