<?xml version="1.0" encoding="UTF-8"?>
<svg width="16" height="16" viewBox="0 0 16 16" fill="none" xmlns="http://www.w3.org/2000/svg">
  <path d="M8 16C12.4183 16 16 12.4183 16 8C16 3.58172 12.4183 0 8 0C3.58172 0 0 3.58172 0 8C0 12.4183 3.58172 16 8 16Z" fill="#8B5CF6"/>
  <path d="M8.00024 2.40002L7.90024 2.70002V10.2L8.00024 10.3L11.8002 8.10002L8.00024 2.40002Z" fill="#C4B5FD"/>
  <path d="M8.00024 2.40002L4.20024 8.10002L8.00024 10.3V6.50002V2.40002Z" fill="white"/>
  <path d="M8.00024 11.1L7.95024 11.1667V13.5667L8.00024 13.7333L11.8002 8.90002L8.00024 11.1Z" fill="#C4B5FD"/>
  <path d="M8.00024 13.7333V11.1L4.20024 8.90002L8.00024 13.7333Z" fill="white"/>
</svg> 